<?xml version="1.0" standalone="no"?>
<!DOCTYPE svg PUBLIC "-//W3C//DTD SVG 20010904//EN"
 "http://www.w3.org/TR/2001/REC-SVG-20010904/DTD/svg10.dtd">
<svg version="1.0" xmlns="http://www.w3.org/2000/svg"
 width="950.000000pt" height="950.000000pt" viewBox="0 0 950.000000 950.000000"
 preserveAspectRatio="xMidYMid meet">
<metadata>
Created by potrace 1.14, written by Peter Selinger 2001-2017
</metadata>
<g transform="translate(0.000000,950.000000) scale(0.100000,-0.100000)"
fill="#000000" stroke="none">
<path d="M0 4750 l0 -4750 4750 0 4750 0 0 4750 0 4750 -4750 0 -4750 0 0
-4750z m9110 -30 l0 -4370 -4370 0 -4370 0 0 4370 0 4370 4370 0 4370 0 0
-4370z"/>
<path d="M678 4725 l-3 -4065 4068 0 4067 0 0 4065 0 4065 -4065 0 -4065 0 -2
-4065z m5652 2725 c872 -529 1586 -963 1588 -965 4 -4 -301 -168 -314 -168 -8
0 -1352 824 -2770 1699 l-102 63 -1443 -882 -1444 -882 -6 -1330 c-3 -731 -7
-1401 -8 -1487 l-1 -158 -150 -75 c-82 -41 -154 -75 -160 -75 -7 0 -9 532 -8
1632 l3 1632 1610 982 c886 539 1612 980 1615 979 3 -2 718 -436 1590 -965z
m-354 -468 c682 -417 1265 -773 1297 -791 32 -18 55 -37 50 -41 -4 -4 -72 -46
-149 -93 l-142 -85 -588 360 c-324 198 -838 513 -1143 699 -304 187 -558 339
-565 339 -16 0 -1995 -1213 -1997 -1224 0 -5 381 -238 847 -516 467 -279 1409
-841 2094 -1250 685 -409 1354 -808 1488 -888 133 -79 242 -147 242 -151 -1
-6 -2662 -1585 -2672 -1586 -8 0 -2448 1447 -2453 1455 -6 9 265 185 282 184
6 -1 496 -289 1089 -640 593 -352 1081 -638 1086 -637 10 4 2051 1214 2060
1222 4 3 -145 96 -330 207 -185 111 -1082 646 -1992 1189 -910 543 -1811 1081
-2002 1194 -191 113 -347 208 -347 211 -1 3 245 156 547 340 301 184 887 543
1302 797 415 255 756 463 756 463 1 0 559 -341 1240 -758z m1964 -2065 l0
-1282 -153 -83 c-85 -45 -157 -82 -160 -82 -4 0 -7 488 -7 1085 0 597 -2 1085
-4 1085 -3 0 -396 -229 -876 -510 l-871 -510 -151 99 c-83 54 -147 101 -142
104 5 2 531 309 1169 682 638 372 1164 681 1170 686 5 5 13 9 17 9 4 0 8 -577
8 -1283z m-4335 1 c816 -497 1481 -905 1479 -907 -2 -3 -82 -41 -178 -86
l-173 -82 -1129 683 c-621 376 -1132 684 -1136 684 -5 0 -8 -350 -8 -778 l0
-778 -166 -104 c-92 -58 -171 -106 -175 -108 -5 -2 -9 532 -9 1187 0 655 3
1191 6 1191 3 0 673 -406 1489 -902z m4365 -1837 l0 -159 -257 -152 c-641
-380 -2306 -1363 -2571 -1519 -162 -95 -313 -182 -337 -192 l-43 -19 -1599
931 c-879 512 -1602 934 -1606 938 -8 8 283 171 303 171 7 0 2627 -1521 2880
-1672 11 -7 442 236 1620 911 883 506 1606 921 1608 921 1 0 2 -72 2 -159z"/>
</g>
</svg>
